<svg id="Ebene_3" data-name="Ebene 3" xmlns="http://www.w3.org/2000/svg" viewBox="0 0 28.7 24"><defs><style>.cls-1{fill:#fff;}</style></defs><title>Ton_W</title><path class="cls-1" d="M26.77,5.48a1,1,0,0,0-1.48-.07h0a1,1,0,0,0-.06,1.34,14,14,0,0,1,0,18.48,1,1,0,0,0,.06,1.34h0a1,1,0,0,0,1.48-.07,16,16,0,0,0,0-21Z" transform="translate(-2 -4)"/><path class="cls-1" d="M23.93,8.32a1,1,0,0,0-1.48-.07h0a1,1,0,0,0-.07,1.32,10,10,0,0,1,0,12.84,1,1,0,0,0,.07,1.32h0a1,1,0,0,0,1.48-.07,12,12,0,0,0,0-15.36Z" transform="translate(-2 -4)"/><path class="cls-1" d="M17,5a1.39,1.39,0,0,0-1.36-1,1.41,1.41,0,0,0-1,.41L8,11H3a1,1,0,0,0-1,1v8a1,1,0,0,0,1,1H8l6,6,.59.59a1.41,1.41,0,0,0,1,.41A1.39,1.39,0,0,0,17,27a1.42,1.42,0,0,0,0-.36V5.41A1.42,1.42,0,0,0,17,5ZM15,25,9,19H4V13H9l6-6Z" transform="translate(-2 -4)"/><line class="cls-1" x1="15" y1="23" x2="14.95" y2="22.95"/><line class="cls-1" x1="15" y1="1" x2="14.95" y2="1.05"/><polyline class="cls-1" points="7 15 12 20 13 21"/><polyline class="cls-1" points="13 14 13 20 13 21"/><polyline class="cls-1" points="13 3 13 4 13 9"/><polyline class="cls-1" points="9 7 12 4 13 3"/><path class="cls-1" d="M22.7,16a8,8,0,0,1-1.6,4.8,1,1,0,0,1-1.4.19l-.1-.09h0a1,1,0,0,1-.08-1.3l.19-.27a6,6,0,0,0,0-6.64l-.19-.27a1,1,0,0,1,.08-1.3h0l.1-.09a1,1,0,0,1,1.4.19A8,8,0,0,1,22.7,16Z" transform="translate(-2 -4)"/></svg>