<svg id="Ebene_3" data-name="Ebene 3" xmlns="http://www.w3.org/2000/svg" viewBox="0 0 25 24"><defs><style>.cls-1{fill:none;}.cls-2{fill:#fff;}</style></defs><title>Ton-Aus_W</title><line class="cls-1" x1="13.5" y1="23" x2="13.45" y2="22.95"/><line class="cls-1" x1="13.5" y1="1" x2="13.45" y2="1.05"/><polyline class="cls-1" points="13 14 13 20 13 21"/><polyline class="cls-1" points="13 3 13 4 13 9"/><polyline class="cls-1" points="9 7 12 4 13 3"/><path class="cls-2" d="M18.45,5a1.39,1.39,0,0,0-1.36-1,1.41,1.41,0,0,0-1,.41L9.5,11h-5a1,1,0,0,0-1,1v8a1,1,0,0,0,1,1h5l6,6,.59.59a1.41,1.41,0,0,0,1,.41,1.39,1.39,0,0,0,1.36-1,1.42,1.42,0,0,0,0-.36V5.41A1.42,1.42,0,0,0,18.45,5Zm-2,20-6-6h-5V13h5l6-6Z" transform="translate(-3.5 -4)"/><path class="cls-2" d="M28.13,17.81a1.27,1.27,0,0,1-1.8,1.8l-.38-.38-1.43-1.42-1.8,1.8a1.27,1.27,0,0,1-1.85-1.74l.05-.06,1.8-1.8-.8-.82-1-1a1.27,1.27,0,0,1,1.74-1.85l.06.05,1.8,1.8.69-.69,1.12-1.11a1.27,1.27,0,0,1,1.8,1.8l-.37.37L26.33,16l1.1,1.1Z" transform="translate(-3.5 -4)"/></svg>