<svg id="Kreis" xmlns="http://www.w3.org/2000/svg" viewBox="0 0 20 21">
  <defs>
    <style>
    .cls-1 {
      fill: #fff;
    }

    .cls-2 {
      fill: #010101;
      opacity: 0.61;
    }

    </style>
  </defs>
  <title>Button_W</title>
  <path class="cls-1" d="M8,16.63A2.31,2.31,0,0,0,8,17v-.4Z" transform="translate(-6 -2)" />
  <path class="cls-1" d="M24,9.4V6c0-2.21-3.58-4-8-4S8,3.79,8,6V9.4A4.67,4.67,0,0,0,6,13v4a3.91,3.91,0,0,0,.57,2c1.37,2.33,5.07,4,9.43,4s8.06-1.67,9.43-4A3.91,3.91,0,0,0,26,17V13A4.67,4.67,0,0,0,24,9.4ZM16,4c3.31,0,6,.9,6,2,0,.59-.78,1.13-2,1.49A14.08,14.08,0,0,1,16,8a14.08,14.08,0,0,1-4-.51c-1.25-.36-2-.9-2-1.49C10,4.9,12.69,4,16,4ZM10,8.64a6.74,6.74,0,0,0,.71.36A13.41,13.41,0,0,0,16,10a13.41,13.41,0,0,0,5.29-1A6.74,6.74,0,0,0,22,8.64V12a.63.63,0,0,1,0,.19.55.55,0,0,1-.09.19l-.06.1a.41.41,0,0,1-.09.1l-.09.1a3.39,3.39,0,0,1-1.1.62l-.17.06-.4.13-.08,0h0a3.66,3.66,0,0,1-.5.13q-.34.09-.72.15l-.5.07a4,4,0,0,1-.51.06l-.81.06L16,14l-.84,0-.81-.06a4,4,0,0,1-.51-.06l-.5-.07q-.37-.06-.72-.15a3.66,3.66,0,0,1-.5-.13h0l-.08,0-.4-.13-.17-.06a3.39,3.39,0,0,1-1.1-.62l-.09-.1a.41.41,0,0,1-.09-.1l-.06-.1a.55.55,0,0,1-.09-.19A.63.63,0,0,1,10,12ZM24,17c0,1.18-1,2.26-2.71,3A13,13,0,0,1,16,21a13,13,0,0,1-5.29-1C9,19.26,8,18.18,8,17V12a2.19,2.19,0,0,0,.34,1.14,3.91,3.91,0,0,0,1.25,1.25h0l.17.11A12.12,12.12,0,0,0,16,16a12.12,12.12,0,0,0,6.23-1.5l.17-.11h0a3.91,3.91,0,0,0,1.25-1.25A2.19,2.19,0,0,0,24,12Z" transform="translate(-6 -2)" />
  <path class="cls-2" d="M24,16.6V17a2.31,2.31,0,0,0,0-.37Z" transform="translate(-6 -2)" />
</svg>
