<svg id="Ebene_3" data-name="Ebene 3" xmlns="http://www.w3.org/2000/svg" viewBox="0 0 28 20"><defs><style>.cls-1{fill:#fff;}</style></defs><title>Kamera_Variante_W</title><path class="cls-1" d="M16,12a4,4,0,1,0,4,4A4,4,0,0,0,16,12Zm0,0a4,4,0,1,0,4,4A4,4,0,0,0,16,12Zm0,0a4,4,0,1,0,4,4A4,4,0,0,0,16,12Zm0,0a4,4,0,1,0,4,4A4,4,0,0,0,16,12Zm0,0a4,4,0,1,0,4,4A4,4,0,0,0,16,12Zm0,0a4,4,0,1,0,4,4A4,4,0,0,0,16,12Zm0,0a4,4,0,1,0,4,4A4,4,0,0,0,16,12Z" transform="translate(-2 -6)"/><path class="cls-1" d="M24,8,22,6H10L8,8H2V26H30V8ZM7,14a1,1,0,1,1,1-1A1,1,0,0,1,7,14Zm15,2a6,6,0,1,1-6-6A6,6,0,0,1,22,16Z" transform="translate(-2 -6)"/></svg>