<svg id="Ebene_4" data-name="Ebene 4" xmlns="http://www.w3.org/2000/svg" viewBox="0 0 32 32">
  <defs>
    <style>
    .cls-1 {
      fill: #1d1d1b;
    }

    .cls-2 {
      fill: #fff;
    }

    </style>
  </defs>
  <title>Konfiguration_Variante_W</title>
  <path class="cls-1" d="M19.86,15a4.06,4.06,0,0,0-.4-1,3.83,3.83,0,0,0-.54-.73l-.19-.19a3.83,3.83,0,0,0-.73-.54,4.06,4.06,0,0,0-1-.4,3.93,3.93,0,0,0-2.08,0,4.06,4.06,0,0,0-1,.4,3.83,3.83,0,0,0-.73.54l-.19.19a3.83,3.83,0,0,0-.54.73,4.06,4.06,0,0,0-.4,1,3.93,3.93,0,0,0,0,2.08,4.06,4.06,0,0,0,.4,1,3.83,3.83,0,0,0,.54.73l.19.19a3.83,3.83,0,0,0,.73.54,4.06,4.06,0,0,0,1,.4,3.93,3.93,0,0,0,2.08,0,4.06,4.06,0,0,0,1-.4,3.83,3.83,0,0,0,.73-.54l.19-.19a3.83,3.83,0,0,0,.54-.73,4.06,4.06,0,0,0,.4-1,3.93,3.93,0,0,0,0-2.08Z" />
  <path class="cls-2" d="M20,16a4,4,0,0,1-.14,1,4.06,4.06,0,0,1-.4,1,3.83,3.83,0,0,1-.54.73l-.19.19a3.83,3.83,0,0,1-.73.54,4.06,4.06,0,0,1-1,.4,3.93,3.93,0,0,1-2.08,0,4.06,4.06,0,0,1-1-.4,3.83,3.83,0,0,1-.73-.54l-.19-.19a3.83,3.83,0,0,1-.54-.73,4.06,4.06,0,0,1-.4-1,3.93,3.93,0,0,1,0-2.08,4.06,4.06,0,0,1,.4-1,3.83,3.83,0,0,1,.54-.73l.19-.19a3.83,3.83,0,0,1,.73-.54,4.06,4.06,0,0,1,1-.4,3.93,3.93,0,0,1,2.08,0,4.06,4.06,0,0,1,1,.4,3.83,3.83,0,0,1,.73.54l.19.19a3.83,3.83,0,0,1,.54.73,4.06,4.06,0,0,1,.4,1A4,4,0,0,1,20,16Z" />
  <path class="cls-2" d="M32,20V12H27.31a8.58,8.58,0,0,0-.48-1.18l1.48-1.48,1.47-1.47.36-.36L24.49,1.86l-.36.36L22.67,3.69h0L21.18,5.17A8.58,8.58,0,0,0,20,4.69V0H12V4.69a8.58,8.58,0,0,0-1.18.48L9.34,3.69h0L7.87,2.22l-.36-.36L1.86,7.51l.36.36L3.69,9.34l1.48,1.48A8.58,8.58,0,0,0,4.69,12H0v8H4.69a8.58,8.58,0,0,0,.48,1.18L3.69,22.66h0L2.22,24.13l-.36.36,5.65,5.65.36-.36,1.47-1.47,1.48-1.48a8.58,8.58,0,0,0,1.18.48V32h8V27.31a8.58,8.58,0,0,0,1.18-.48l1.48,1.48,1.47,1.47.36.36,5.65-5.65-.36-.36-1.47-1.46h0l-1.48-1.48A8.58,8.58,0,0,0,27.31,20ZM20.46,20a3.33,3.33,0,0,1-.46.46,5.38,5.38,0,0,1-1.41,1,3.32,3.32,0,0,1-.59.24,5.45,5.45,0,0,1-1.67.33,2.73,2.73,0,0,1-.66,0A5.45,5.45,0,0,1,14,21.65a3.32,3.32,0,0,1-.59-.24,5.38,5.38,0,0,1-1.41-1,3.33,3.33,0,0,1-.46-.46,5.38,5.38,0,0,1-.95-1.41,3.32,3.32,0,0,1-.24-.59A5.45,5.45,0,0,1,10,16.33a2.73,2.73,0,0,1,0-.66A5.45,5.45,0,0,1,10.35,14a3.32,3.32,0,0,1,.24-.59A5.38,5.38,0,0,1,11.54,12a3.33,3.33,0,0,1,.46-.46,5.38,5.38,0,0,1,1.41-1,3.32,3.32,0,0,1,.59-.24A5.45,5.45,0,0,1,15.67,10a2.74,2.74,0,0,1,.66,0,5.45,5.45,0,0,1,1.67.33,3.32,3.32,0,0,1,.59.24,5.38,5.38,0,0,1,1.41,1,3.33,3.33,0,0,1,.46.46,5.38,5.38,0,0,1,.95,1.41,3.32,3.32,0,0,1,.24.59A5.45,5.45,0,0,1,22,15.67a2.73,2.73,0,0,1,0,.66A5.45,5.45,0,0,1,21.65,18a3.32,3.32,0,0,1-.24.59A5.38,5.38,0,0,1,20.46,20Z" />
</svg>
