<svg id="Ebene_4" data-name="Ebene 4" xmlns="http://www.w3.org/2000/svg" viewBox="0 0 32 32"><defs><style>.cls-1{fill:#fff;}</style></defs><title>Konfiguration_W</title><path class="cls-1" d="M32,20V12H27.31a8.58,8.58,0,0,0-.48-1.18l1.48-1.48,1.47-1.47.36-.36L24.49,1.86l-.36.36L22.67,3.69h0L21.18,5.17A8.58,8.58,0,0,0,20,4.69V0H12V4.69a8.58,8.58,0,0,0-1.18.48L9.34,3.69h0L7.87,2.22l-.36-.36L1.86,7.51l.36.36L3.69,9.34l1.48,1.48A8.58,8.58,0,0,0,4.69,12H0v8H4.69a8.58,8.58,0,0,0,.48,1.18L3.69,22.66h0L2.22,24.13l-.36.36,5.65,5.65.36-.36,1.47-1.47,1.48-1.48a8.58,8.58,0,0,0,1.18.48V32h8V27.31a8.58,8.58,0,0,0,1.18-.48l1.48,1.48,1.47,1.47.36.36,5.65-5.65-.36-.36-1.47-1.46h0l-1.48-1.48A8.58,8.58,0,0,0,27.31,20Zm-6.22,3,1.43,1.43.1.1-2.82,2.82-.1-.1-2.87-2.87a9.68,9.68,0,0,1-1.52.82,1.51,1.51,0,0,1-.35.14,9.26,9.26,0,0,1-1.65.5V30H14V25.8a9.26,9.26,0,0,1-1.65-.5,1.51,1.51,0,0,1-.35-.14,9.68,9.68,0,0,1-1.52-.82L7.61,27.21l-.1.1L4.69,24.49l.1-.1L6.22,23l1.44-1.44A9.68,9.68,0,0,1,6.84,20a1.51,1.51,0,0,1-.14-.35A9.25,9.25,0,0,1,6.2,18H2V14H6.2a9.25,9.25,0,0,1,.5-1.65A1.5,1.5,0,0,1,6.84,12a9.68,9.68,0,0,1,.82-1.52l-3-3L6.1,6.1,7.51,4.69l3,3A9.68,9.68,0,0,1,12,6.84a1.5,1.5,0,0,1,.35-.14A9.25,9.25,0,0,1,14,6.2V2h4V6.2a9.25,9.25,0,0,1,1.65.5,1.5,1.5,0,0,1,.35.14,9.68,9.68,0,0,1,1.52.82l3-3L25.9,6.1l1.41,1.41-3,3A9.68,9.68,0,0,1,25.16,12a1.5,1.5,0,0,1,.14.35A9.25,9.25,0,0,1,25.8,14H30v4H25.8a9.25,9.25,0,0,1-.5,1.65,1.51,1.51,0,0,1-.14.35,9.68,9.68,0,0,1-.82,1.52Z"/><path class="cls-1" d="M22,15.67A5.45,5.45,0,0,0,21.65,14a3.32,3.32,0,0,0-.24-.59A5.38,5.38,0,0,0,20.46,12a3.33,3.33,0,0,0-.46-.46,5.38,5.38,0,0,0-1.41-1,3.32,3.32,0,0,0-.59-.24A5.45,5.45,0,0,0,16.33,10a2.74,2.74,0,0,0-.66,0,5.45,5.45,0,0,0-1.67.33,3.32,3.32,0,0,0-.59.24,5.38,5.38,0,0,0-1.41,1,3.33,3.33,0,0,0-.46.46,5.38,5.38,0,0,0-.95,1.41,3.32,3.32,0,0,0-.24.59A5.45,5.45,0,0,0,10,15.67a2.73,2.73,0,0,0,0,.66A5.45,5.45,0,0,0,10.35,18a3.32,3.32,0,0,0,.24.59A5.38,5.38,0,0,0,11.54,20a3.33,3.33,0,0,0,.46.46,5.38,5.38,0,0,0,1.41,1,3.32,3.32,0,0,0,.59.24,5.45,5.45,0,0,0,1.67.33,2.73,2.73,0,0,0,.66,0A5.45,5.45,0,0,0,18,21.65a3.32,3.32,0,0,0,.59-.24,5.38,5.38,0,0,0,1.41-1,3.33,3.33,0,0,0,.46-.46,5.38,5.38,0,0,0,.95-1.41,3.32,3.32,0,0,0,.24-.59A5.45,5.45,0,0,0,22,16.33a2.73,2.73,0,0,0,0-.66ZM19.86,17a4.06,4.06,0,0,1-.4,1,3.83,3.83,0,0,1-.54.73l-.19.19a3.83,3.83,0,0,1-.73.54,4.06,4.06,0,0,1-1,.4,3.93,3.93,0,0,1-2.08,0,4.06,4.06,0,0,1-1-.4,3.83,3.83,0,0,1-.73-.54l-.19-.19a3.83,3.83,0,0,1-.54-.73,4.06,4.06,0,0,1-.4-1,3.93,3.93,0,0,1,0-2.08,4.06,4.06,0,0,1,.4-1,3.83,3.83,0,0,1,.54-.73l.19-.19a3.83,3.83,0,0,1,.73-.54,4.06,4.06,0,0,1,1-.4,3.93,3.93,0,0,1,2.08,0,4.06,4.06,0,0,1,1,.4,3.83,3.83,0,0,1,.73.54l.19.19a3.83,3.83,0,0,1,.54.73,4.06,4.06,0,0,1,.4,1,3.93,3.93,0,0,1,0,2.08Z"/></svg>