<svg id="Kreis" xmlns="http://www.w3.org/2000/svg" viewBox="0 0 29 29"><defs><style>.cls-1{fill:#fff;}</style></defs><title>Connector_W</title><path class="cls-1" d="M24.5,20a5.48,5.48,0,0,0-4.68,2.62l-8-4.63A5.21,5.21,0,0,0,12,16.5a5.61,5.61,0,0,0-.14-1.24L20,10.59A5.5,5.5,0,1,0,19,7.5a5.61,5.61,0,0,0,.14,1.24L11,13.41a5.51,5.51,0,1,0-.15,6.38l8.19,4.73a5.25,5.25,0,0,0-.09,1A5.5,5.5,0,1,0,24.5,20Zm0-16a3.5,3.5,0,0,1,0,7,3.47,3.47,0,0,1-2.8-1.42A3.35,3.35,0,0,1,21,7.66a.86.86,0,0,1,0-.16A3.5,3.5,0,0,1,24.5,4ZM6.5,20a3.5,3.5,0,0,1,0-7,3.47,3.47,0,0,1,2.8,1.42A3.35,3.35,0,0,1,10,16.34a.86.86,0,0,1,0,.16,3.25,3.25,0,0,1,0,.44A3.51,3.51,0,0,1,6.5,20Zm18,9A3.5,3.5,0,0,1,21,25.5,3.35,3.35,0,0,1,21.34,24a1.83,1.83,0,0,1,.21-.39,3.5,3.5,0,1,1,3,5.37Z" transform="translate(-1 -2)"/></svg>