<svg id="Kreis" xmlns="http://www.w3.org/2000/svg" viewBox="0 0 22 31"><defs><style>.cls-1{fill:#fff;}</style></defs><title>Log_Variante_W</title><path class="cls-1" d="M26,2H23a1,1,0,0,0-2,0H19a1,1,0,0,0-2,0H15a1,1,0,0,0-2,0H11A1,1,0,0,0,9,2H6A1,1,0,0,0,5,3V31a1,1,0,0,0,1,1H26a1,1,0,0,0,1-1V3A1,1,0,0,0,26,2ZM15,25H10a1,1,0,0,1,0-2h5a1,1,0,0,1,0,2ZM10,15H22a1,1,0,0,1,0,2H10a1,1,0,0,1,0-2ZM9,12a1,1,0,0,1,1-1H22a1,1,0,0,1,0,2H10A1,1,0,0,1,9,12Zm1,7H22a1,1,0,0,1,0,2H10a1,1,0,0,1,0-2Zm10,6h4l-4,4Zm5,5H22l3-3ZM25,7H7V4H9a1,1,0,0,0,2,0h2a1,1,0,0,0,2,0h2a1,1,0,0,0,2,0h2a1,1,0,0,0,2,0h2Z" transform="translate(-5 -1)"/></svg>