<svg id="Kreis" xmlns="http://www.w3.org/2000/svg" viewBox="0 0 22 31"><defs><style>.cls-1{fill:none;stroke:#000;stroke-miterlimit:10;stroke-width:2px;}.cls-2{fill:#fff;}</style></defs><title>Log_W</title><path class="cls-1" d="M32,8" transform="translate(-5 -1)"/><path class="cls-1" d="M2,8" transform="translate(-5 -1)"/><rect class="cls-2" x="4" y="10" width="14" height="2" rx="1" ry="1"/><rect class="cls-2" x="4" y="14" width="14" height="2" rx="1" ry="1"/><rect class="cls-2" x="4" y="18" width="14" height="2" rx="1" ry="1"/><rect class="cls-2" x="4" y="22" width="7" height="2" rx="1" ry="1"/><path class="cls-2" d="M26,2H23a1,1,0,0,0-2,0H19a1,1,0,0,0-2,0H15a1,1,0,0,0-2,0H11A1,1,0,0,0,9,2H6A1,1,0,0,0,5,3V31a1,1,0,0,0,1,1H26a1,1,0,0,0,1-1V3A1,1,0,0,0,26,2ZM25,30H22l3-3Zm-5-1V25h4Zm5-6H19a1,1,0,0,0-1,1v6H7V9H25ZM25,7H7V4H9a1,1,0,0,0,2,0h2a1,1,0,0,0,2,0h2a1,1,0,0,0,2,0h2a1,1,0,0,0,2,0h2Z" transform="translate(-5 -1)"/></svg>