<svg id="Quadrat_Außen" data-name="Quadrat Außen" xmlns="http://www.w3.org/2000/svg" viewBox="0 0 28 28"><defs><style>.cls-1{fill:#fff;}</style></defs><title>nfc-reader_Variante_W</title><path d="M3.87,30H2V28.13A1.87,1.87,0,0,0,3.87,30Z" transform="translate(-2 -2)"/><path class="cls-1" d="M2,28.13V30H3.87A1.87,1.87,0,0,1,2,28.13Z" transform="translate(-2 -2)"/><path d="M2,2H3.87A1.87,1.87,0,0,0,2,3.87Z" transform="translate(-2 -2)"/><path class="cls-1" d="M3.87,2H2V3.87A1.87,1.87,0,0,1,3.87,2Z" transform="translate(-2 -2)"/><path d="M30,2V3.87A1.87,1.87,0,0,0,28.13,2Z" transform="translate(-2 -2)"/><path class="cls-1" d="M30,2H28.13A1.87,1.87,0,0,1,30,3.87V2Z" transform="translate(-2 -2)"/><path d="M30,28.13V30H28.13A1.87,1.87,0,0,0,30,28.13Z" transform="translate(-2 -2)"/><path class="cls-1" d="M30,28.13A1.87,1.87,0,0,1,28.13,30H30V28.13Z" transform="translate(-2 -2)"/><path class="cls-1" d="M28.13,2H3.87A1.87,1.87,0,0,0,2,3.87V28.13A1.87,1.87,0,0,0,3.87,30H28.13A1.87,1.87,0,0,0,30,28.13V3.87A1.87,1.87,0,0,0,28.13,2ZM26,26a1,1,0,0,1-1,1H7a1,1,0,0,1-1-1V7A1,1,0,0,1,7,6h4a1,1,0,0,1,0,2H8V25H24V8H17v6.18a3,3,0,0,1-1.61,5.75A3,3,0,0,1,15,14.18V7a1,1,0,0,1,1-1h9a1,1,0,0,1,1,1Z" transform="translate(-2 -2)"/></svg>