<svg id="Quadrat_Außen" data-name="Quadrat Außen" xmlns="http://www.w3.org/2000/svg" viewBox="0 0 30 30"><defs><style>.cls-1{fill:none;stroke:#fff;stroke-miterlimit:10;stroke-width:2px;}.cls-2{fill:#fff;}</style></defs><title>nfc-reader_W</title><rect class="cls-1" x="1" y="1" width="28" height="28" rx="1.87" ry="1.87"/><path class="cls-2" d="M26,7V26a1,1,0,0,1-1,1H7a1,1,0,0,1-1-1V7A1,1,0,0,1,7,6h4a1,1,0,0,1,1,1h0a1,1,0,0,1-1,1H8V25H24V8H17v6.18a3,3,0,0,1,2,2.35,3,3,0,1,1-4-2.35V7a1,1,0,0,1,1-1h9A1,1,0,0,1,26,7Z" transform="translate(-1 -1)"/></svg>