<svg id="Ebene_3" data-name="Ebene 3" xmlns="http://www.w3.org/2000/svg" viewBox="0 0 27.61 26"><defs><style>.cls-1{fill:#fff;}</style></defs><title>No_Notifcation_Variante_W</title><path class="cls-1" d="M4,23v.59a1.41,1.41,0,0,1,.41-1Z" transform="translate(-4 -2)"/><path class="cls-1" d="M4,23v.59a1.41,1.41,0,0,1,.41-1Z" transform="translate(-4 -2)"/><path class="cls-1" d="M23.93,8.91A10,10,0,0,0,20,5.84a4,4,0,0,0-8,0A10,10,0,0,0,6,15v6L4.41,22.59a1.41,1.41,0,0,0,1,2.41h6.72A4,4,0,0,0,16,28a3.94,3.94,0,0,0,1.61-.34,3.72,3.72,0,0,1-.48-.41A4.33,4.33,0,0,1,16.25,26L16,26a2,2,0,0,1-1.73-1h1.67a4.56,4.56,0,0,1-.08-.82,4.33,4.33,0,0,1,1.27-3.08l1.54-1.54L17.13,18a4.35,4.35,0,0,1,6.15-6.15l1.54,1.54.88-.88A10,10,0,0,0,23.93,8.91Z" transform="translate(-4 -2)"/><path class="cls-1" d="M31,22.64a2.17,2.17,0,1,1-3.08,3.07l-.8-.8-2.27-2.27L22.45,25l-.71.71a2.15,2.15,0,0,1-2.38.46,2,2,0,0,1-.69-.46,2.16,2.16,0,0,1,0-3.07l3.07-3.08-3.07-3.08a2.18,2.18,0,0,1,1.53-3.71,2.14,2.14,0,0,1,1.54.64l3.08,3.07,3.07-3.07A2.17,2.17,0,1,1,31,16.48l-3.08,3.08Z" transform="translate(-4 -2)"/></svg>