<svg id="Ebene_3" data-name="Ebene 3" xmlns="http://www.w3.org/2000/svg" viewBox="0 0 22 31"><defs><style>.cls-1{fill:#fff;}</style></defs><title>No_Sprachnotiz_W</title><path class="cls-1" d="M23.88,25.78a1,1,0,0,0,.69.29A6,6,0,0,1,21,27.25H17V29h4v2H11V29h4V27.25H11a6,6,0,0,1-6-6V16H7v5a4,4,0,0,0,4,4h7.86l.78.78a1,1,0,0,0,1.41,0l.89-.9a3.35,3.35,0,0,0,.77-.27Z" transform="translate(-5)"/><path class="cls-1" d="M27,16v3.42a1,1,0,0,0-.29-.71l-1.42-1.42a1,1,0,0,0-.29-.2V16Z" transform="translate(-5)"/><path class="cls-1" d="M26.71,20.12a1,1,0,0,0,.29-.7v1.83A5.91,5.91,0,0,1,26.74,23l0,0-1.42-1.41Z" transform="translate(-5)"/><path class="cls-1" d="M20,0H12A3,3,0,0,0,9,3V20a3,3,0,0,0,3,3h6.18l0,0,1.42-1.41L19.1,21H12a1,1,0,0,1-1-1V3a1,1,0,0,1,1-1h8a1,1,0,0,1,1,1V17.25l0,0,1.41,1.42.54-.54V3A3,3,0,0,0,20,0Z" transform="translate(-5)"/><path class="cls-1" d="M25.29,23a1,1,0,0,1-1.41,1.41l-.3-.3L22.46,23,21,24.36A1,1,0,0,1,19.6,23l0,0L21,21.54l-.63-.64-.78-.78A1,1,0,0,1,21,18.67l0,0,1.41,1.41.54-.54.88-.87a1,1,0,0,1,1.41,1.41l-.29.29-1.12,1.13.86.86Z" transform="translate(-5)"/></svg>