<svg id="Ebene_3" data-name="Ebene 3" xmlns="http://www.w3.org/2000/svg" viewBox="0 0 22 31"><defs><style>.cls-1{fill:#fff;}</style></defs><title>No_Sprachnotiz_Variante _W</title><path class="cls-1" d="M23.88,25.78a1,1,0,0,0,.69.29A6,6,0,0,1,21,27.25H17V29h4v2H11V29h4V27.25H11a6,6,0,0,1-6-6V16H7v5a4,4,0,0,0,4,4h7.86l.78.78a1,1,0,0,0,1.41,0l.89-.9a3.35,3.35,0,0,0,.77-.27Z" transform="translate(-5)"/><path class="cls-1" d="M27,16v3.42a1,1,0,0,0-.29-.71l-1.42-1.42a1,1,0,0,0-.29-.2V16Z" transform="translate(-5)"/><path class="cls-1" d="M26.71,20.12a1,1,0,0,0,.29-.7v1.83A5.91,5.91,0,0,1,26.74,23l0,0-1.42-1.41Z" transform="translate(-5)"/><path class="cls-1" d="M23,3V18.17l-.54.54L21,17.29a1,1,0,0,0-1.41,0l-1.42,1.42a1,1,0,0,0,0,1.41l1.42,1.42L18.22,23l0,0H12a3,3,0,0,1-3-3V3a3,3,0,0,1,3-3h8A3,3,0,0,1,23,3Z" transform="translate(-5)"/><path class="cls-1" d="M25.29,23a1,1,0,0,1-1.41,1.41l-.3-.3L22.46,23,21,24.36A1,1,0,0,1,19.6,23l0,0L21,21.54l-1.41-1.42A1,1,0,0,1,21,18.71l1.41,1.41.54-.54.88-.87a1,1,0,0,1,1.41,1.41l-.29.29-1.12,1.13.86.86Z" transform="translate(-5)"/></svg>