<svg id="Ebene_3" data-name="Ebene 3" xmlns="http://www.w3.org/2000/svg" viewBox="0 0 24 26">
  <defs>
    <style>
    .cls-1 {
      fill: #fff;
    }

    </style>
  </defs>
  <title>Notifcation_W</title>
  <path class="cls-1" d="M26,21V15a10,10,0,0,0-6-9.16,4,4,0,0,0-8,0A10,10,0,0,0,6,15v6L4.41,22.59a1.41,1.41,0,0,0-.41,1H4A1.41,1.41,0,0,0,5.41,25h6.72a4,4,0,0,0,7.74,0h6.72A1.41,1.41,0,0,0,28,23.59h0a1.41,1.41,0,0,0-.41-1ZM16,26a2,2,0,0,1-1.73-1h3.46A2,2,0,0,1,16,26Zm8-5h0v2H8V21H8V15a8,8,0,0,1,4.45-7.17A8.23,8.23,0,0,1,14,7.25V6a1.9,1.9,0,0,1,.18-.83,2,2,0,0,1,3.64,0A1.9,1.9,0,0,1,18,6V7.25a8.23,8.23,0,0,1,1.55.58A8,8,0,0,1,24,15Z" transform="translate(-4 -2)" />
</svg>
