<svg id="Quadrat_Innen" data-name="Quadrat Innen" xmlns="http://www.w3.org/2000/svg" viewBox="0 0 28 28"><defs><style>.cls-1{fill:#fff;}</style></defs><title>QR-Code_W</title><path class="cls-1" d="M2,3V13a1,1,0,0,0,1,1H13a1,1,0,0,0,1-1V3a1,1,0,0,0-1-1H3A1,1,0,0,0,2,3Zm10,9H4V4h8Z" transform="translate(-2 -2)"/><path class="cls-1" d="M18,3V13a1,1,0,0,0,1,1H29a1,1,0,0,0,1-1V3a1,1,0,0,0-1-1H19A1,1,0,0,0,18,3Zm10,9H20V4h8Z" transform="translate(-2 -2)"/><path class="cls-1" d="M2,19V29a1,1,0,0,0,1,1H13a1,1,0,0,0,1-1V19a1,1,0,0,0-1-1H3A1,1,0,0,0,2,19Zm10,9H4V20h8Z" transform="translate(-2 -2)"/><path class="cls-1" d="M30,25v4a1,1,0,0,1-1,1H22a1,1,0,0,1-1-1h0a1,1,0,0,1,1-1h6V25a1,1,0,0,1,1-1h0A1,1,0,0,1,30,25Z" transform="translate(-2 -2)"/><path class="cls-1" d="M20,19V17a1,1,0,0,1,1-1h0a1,1,0,0,1,1,1v1h7a1,1,0,0,1,1,1h0a1,1,0,0,1-1,1H21A1,1,0,0,1,20,19Z" transform="translate(-2 -2)"/><rect class="cls-1" x="20" y="21" width="4" height="3" rx="1.5" ry="1.5"/><path class="cls-1" d="M20,23v4a1,1,0,0,1-2,0V26H17a1,1,0,0,1-1-1h0a1,1,0,0,1,1-1h1V23a1,1,0,0,1,2,0Z" transform="translate(-2 -2)"/><rect class="cls-1" x="5" y="21" width="2" height="2" rx="1" ry="1"/><rect class="cls-1" x="5" y="5" width="2" height="2" rx="1" ry="1"/><rect class="cls-1" x="21" y="5" width="2" height="2" rx="1" ry="1"/></svg>