<svg id="Quadrat_Außen" data-name="Quadrat Außen" xmlns="http://www.w3.org/2000/svg" viewBox="0 0 26.55 28">
  <defs>
    <style>
    </style>
  </defs>
  <title>rabbitMQ_W</title>
  <path class="cls-1" d="M28.12,13.1H20.36a1.43,1.43,0,0,1-1.43-1.43V3.43A1.43,1.43,0,0,0,17.5,2H14.57a1.43,1.43,0,0,0-1.43,1.43v8.25a1.43,1.43,0,0,1-1.43,1.43H10.22a1.43,1.43,0,0,1-1.43-1.43V3.43A1.43,1.43,0,0,0,7.36,2H4.43A1.43,1.43,0,0,0,3,3.43V28.57A1.43,1.43,0,0,0,4.43,30H28.12a1.43,1.43,0,0,0,1.43-1.43v-14A1.43,1.43,0,0,0,28.12,13.1Zm-3.64,9.76a1.59,1.59,0,0,1-1.59,1.59H20.52a1.59,1.59,0,0,1-1.59-1.59V20.48a1.59,1.59,0,0,1,1.59-1.59h2.38a1.59,1.59,0,0,1,1.59,1.59Z" transform="translate(-3 -2)" />
</svg>
