<svg id="Ebene_3" data-name="Ebene 3" xmlns="http://www.w3.org/2000/svg" viewBox="0 0 29.71 29.71"><defs><style>.cls-1{fill:#fff;}</style></defs><title>S_Haken_W</title><path class="cls-1" d="M16.14,1a14.63,14.63,0,0,1,3.95.53A15,15,0,0,1,23.64,3,14.83,14.83,0,0,1,29,8.36a15,15,0,0,1,1.49,3.55,15,15,0,0,1,0,7.89A15,15,0,0,1,29,23.36a14.83,14.83,0,0,1-5.33,5.33,15,15,0,0,1-3.55,1.49,15,15,0,0,1-7.89,0,15,15,0,0,1-3.55-1.49,14.83,14.83,0,0,1-5.33-5.33,15.06,15.06,0,0,1-1.49-3.55,15,15,0,0,1,0-7.9A15,15,0,0,1,3.31,8.36,14.83,14.83,0,0,1,8.64,3a15.06,15.06,0,0,1,3.55-1.49A14.61,14.61,0,0,1,16.14,1Zm0,27.86a12.74,12.74,0,0,0,3.45-.46,13.07,13.07,0,0,0,9.09-9.08,13,13,0,0,0,0-6.9,13.05,13.05,0,0,0-9.09-9.09,13,13,0,0,0-6.89,0,13.05,13.05,0,0,0-9.09,9.09,13,13,0,0,0,0,6.89,13.07,13.07,0,0,0,9.08,9.09A12.72,12.72,0,0,0,16.14,28.86Zm7.43-18.57h0a.92.92,0,0,1,0,1.3L14,21.15a.92.92,0,0,1-1.3,0l-4-4a.92.92,0,0,1,0-1.3h0a.92.92,0,0,1,1.3,0l3.34,3.34,8.91-8.91A.92.92,0,0,1,23.57,10.28Z" transform="translate(-1.29 -1)"/></svg>