<svg id="Ebene_3" data-name="Ebene 3" xmlns="http://www.w3.org/2000/svg" viewBox="0 0 30.43 30.43"><defs><style>.cls-1{fill:#fff;}</style></defs><title>S_Ausrufezeichen_W</title><path class="cls-1" d="M15.79,1a15.07,15.07,0,0,1,4,.54A15.18,15.18,0,0,1,30.46,12.16a15.48,15.48,0,0,1,0,8.1A15.18,15.18,0,0,1,19.84,30.89a15.48,15.48,0,0,1-8.1,0A15.18,15.18,0,0,1,1.11,20.26a15.48,15.48,0,0,1,0-8.1A15.18,15.18,0,0,1,11.74,1.54,15.07,15.07,0,0,1,15.79,1Zm0,28.4a12.83,12.83,0,0,0,3.49-.48,13.47,13.47,0,0,0,3.15-1.33,13.18,13.18,0,0,0,4.73-4.73,13.51,13.51,0,0,0,1.33-3.15,13.11,13.11,0,0,0,0-7,13.47,13.47,0,0,0-1.33-3.15,13.18,13.18,0,0,0-4.73-4.73A13.47,13.47,0,0,0,19.28,3.5a13.11,13.11,0,0,0-7,0A13.51,13.51,0,0,0,9.14,4.83,13.18,13.18,0,0,0,4.41,9.57a13.47,13.47,0,0,0-1.33,3.15,13.08,13.08,0,0,0,0,7,13.47,13.47,0,0,0,1.33,3.15,13.18,13.18,0,0,0,4.73,4.73,13.51,13.51,0,0,0,3.15,1.33A12.8,12.8,0,0,0,15.79,29.4ZM15.27,9.11h1a.5.5,0,0,1,.5.5v9.14a.5.5,0,0,1-.5.5h-1a.5.5,0,0,1-.5-.5V9.61A.5.5,0,0,1,15.27,9.11Zm0,12.17h1a.5.5,0,0,1,.5.5v1a.5.5,0,0,1-.5.5h-1a.5.5,0,0,1-.5-.5v-1A.5.5,0,0,1,15.27,21.28Z" transform="translate(-0.57 -1)"/></svg>