<svg id="Ebene_3" data-name="Ebene 3" xmlns="http://www.w3.org/2000/svg" viewBox="0 0 31 31"><defs><style>.cls-1{fill:#fff;}</style></defs><title>S_Info_W</title><path class="cls-1" d="M16.07,31.5A15.35,15.35,0,0,1,11.95,31,15.47,15.47,0,0,1,1.12,20.13a15.77,15.77,0,0,1,0-8.25A15.47,15.47,0,0,1,11.95,1,15.77,15.77,0,0,1,20.2,1,15.47,15.47,0,0,1,31,11.87a15.77,15.77,0,0,1,0,8.25A15.47,15.47,0,0,1,20.2,31,15.35,15.35,0,0,1,16.07,31.5Zm0-28.93a13,13,0,0,0-3.57.48A13.76,13.76,0,0,0,9.3,4.41,13.43,13.43,0,0,0,4.48,9.23a13.72,13.72,0,0,0-1.36,3.21,13.33,13.33,0,0,0,0,7.12,13.72,13.72,0,0,0,1.36,3.21A13.43,13.43,0,0,0,9.3,27.59a13.76,13.76,0,0,0,3.2,1.36,13.36,13.36,0,0,0,7.13,0,13.72,13.72,0,0,0,3.21-1.36,13.43,13.43,0,0,0,4.82-4.82A13.76,13.76,0,0,0,29,19.57a13.36,13.36,0,0,0,0-7.13,13.72,13.72,0,0,0-1.36-3.21,13.43,13.43,0,0,0-4.82-4.82,13.72,13.72,0,0,0-3.21-1.36A13.07,13.07,0,0,0,16.07,2.57Zm-.53,6.2h1.07a.5.5,0,0,1,.5.5v1.07a.5.5,0,0,1-.5.5H15.54a.5.5,0,0,1-.5-.5V9.27A.5.5,0,0,1,15.54,8.77Zm0,4.13h1.07a.5.5,0,0,1,.5.5v9.33a.5.5,0,0,1-.5.5H15.54a.5.5,0,0,1-.5-.5V13.4A.5.5,0,0,1,15.54,12.9Z" transform="translate(-0.57 -0.5)"/></svg>