<svg id="Ebene_3" data-name="Ebene 3" xmlns="http://www.w3.org/2000/svg" viewBox="0 0 30.39 30.39"><defs><style>.cls-1{fill:#fff;}</style></defs><title>S_Plus_W</title><path class="cls-1" d="M15.81.75a15,15,0,0,1,4,.54A15.23,15.23,0,0,1,30.46,11.9a15.34,15.34,0,0,1,0,8.09A15.23,15.23,0,0,1,19.85,30.6a15.34,15.34,0,0,1-8.09,0A15.23,15.23,0,0,1,1.15,20a15.34,15.34,0,0,1,0-8.09A15.23,15.23,0,0,1,11.76,1.29,15,15,0,0,1,15.81.75Zm0,28.22a12.74,12.74,0,0,0,3.46-.47,13.2,13.2,0,0,0,3.11-1.31A13,13,0,0,0,27,22.52a13.2,13.2,0,0,0,1.31-3.11,13.06,13.06,0,0,0,0-6.92A13.2,13.2,0,0,0,27,9.37,13,13,0,0,0,22.38,4.7a13.2,13.2,0,0,0-3.11-1.31,13.06,13.06,0,0,0-6.92,0A13.2,13.2,0,0,0,9.23,4.7,13,13,0,0,0,4.56,9.37a13.2,13.2,0,0,0-1.31,3.11,13.06,13.06,0,0,0,0,6.92,13.2,13.2,0,0,0,1.31,3.11,13,13,0,0,0,4.67,4.67,13.2,13.2,0,0,0,3.11,1.31A12.74,12.74,0,0,0,15.81,29Zm1.09-14.11h4.43a1,1,0,0,1,1,1V16a1,1,0,0,1-1,1H16.89v4.43a1,1,0,0,1-1,1h-.17a1,1,0,0,1-1-1V17H10.29a1,1,0,0,1-1-1v-.17a1,1,0,0,1,1-1h4.43V10.43a1,1,0,0,1,1-1h.17a1,1,0,0,1,1,1Z" transform="translate(-0.61 -0.75)"/></svg>