<svg id="Ebene_3" data-name="Ebene 3" xmlns="http://www.w3.org/2000/svg" viewBox="0 0 32 32"><defs><style>.cls-1{fill:#fff;}</style></defs><title>S_Fragezeichen_W</title><path class="cls-1" d="M31.87,13.92a16,16,0,1,0-18,18A16,16,0,0,0,31.87,13.92Zm-2,3.9a14,14,0,1,1-15.7-15.7A14,14,0,0,1,29.88,17.82Z" transform="translate(0 0)"/><rect class="cls-1" x="15" y="22" width="2" height="2" rx="0.5" ry="0.5"/><path class="cls-1" d="M17,17.9v1.6a.5.5,0,0,1-.5.5h-1a.5.5,0,0,1-.5-.5V17a1,1,0,0,1,1-1,3,3,0,1,0-3-3.41.49.49,0,0,1-.49.41h-1a.49.49,0,0,1-.5-.53,5,5,0,1,1,6,5.43Z" transform="translate(0 0)"/></svg>