<svg id="Ebene_3" data-name="Ebene 3" xmlns="http://www.w3.org/2000/svg" viewBox="0 0 30 30"><defs><style>.cls-1{fill:#fff;}</style></defs><title>S_X_W</title><path class="cls-1" d="M16,1a14.85,14.85,0,0,1,7.57,2.05,15.28,15.28,0,0,1,5.38,5.38,14.94,14.94,0,0,1,0,15.13,15.28,15.28,0,0,1-5.38,5.38,14.94,14.94,0,0,1-15.13,0,15.28,15.28,0,0,1-5.38-5.38,14.94,14.94,0,0,1,0-15.13A15.28,15.28,0,0,1,8.43,3.05,14.85,14.85,0,0,1,16,1Zm0,28.13a12.92,12.92,0,0,0,3.49-.47,13.15,13.15,0,0,0,9.16-9.16,13.25,13.25,0,0,0,0-7,13.15,13.15,0,0,0-9.16-9.16,13.25,13.25,0,0,0-7,0,13.15,13.15,0,0,0-9.16,9.16,13.25,13.25,0,0,0,0,7,13.15,13.15,0,0,0,9.16,9.16A12.92,12.92,0,0,0,16,29.13Zm5.83-17.64L17.33,16l4.5,4.51a.93.93,0,0,1,0,1.31h0a.93.93,0,0,1-1.31,0L16,17.33l-4.51,4.5a.93.93,0,0,1-1.31,0h0a.93.93,0,0,1,0-1.31L14.67,16l-4.5-4.51a.93.93,0,0,1,0-1.31h0a.93.93,0,0,1,1.31,0L16,14.67l4.51-4.5a.93.93,0,0,1,1.31,0h0A.93.93,0,0,1,21.83,11.49Z" transform="translate(-1 -1)"/></svg>