<svg id="Ebene_3" data-name="Ebene 3" xmlns="http://www.w3.org/2000/svg" viewBox="0 0 19 32"><defs><style>.cls-1{fill:#fff;}</style></defs><title>Smartwatch_Variante_W</title><path class="cls-1" d="M26,12V10a1,1,0,0,0-1-1V8a2,2,0,0,0-2-2H22V1.63A1.63,1.63,0,0,0,20.37,0H11.63A1.63,1.63,0,0,0,10,1.63V6H9A2,2,0,0,0,7,8V23a2,2,0,0,0,2,2h1v5.37A1.63,1.63,0,0,0,11.63,32h8.74A1.63,1.63,0,0,0,22,30.37V25h1a2,2,0,0,0,2-2V19a1,1,0,0,0,1-1V16a1,1,0,0,0-1-1V13A1,1,0,0,0,26,12ZM12,2h8V6H12Zm8,28H12V26h8Zm3-8a1,1,0,0,1-1,1H10a1,1,0,0,1-1-1V9a1,1,0,0,1,1-1H22a1,1,0,0,1,1,1Z" transform="translate(-7)"/><circle class="cls-1" cx="9" cy="28" r="1"/><circle class="cls-1" cx="9" cy="28" r="1"/><circle class="cls-1" cx="9" cy="28" r="1"/></svg>