<svg id="Ebene_3" data-name="Ebene 3" xmlns="http://www.w3.org/2000/svg" viewBox="0 0 22 29"><defs><style>.cls-1{fill:#fff;}</style></defs><title>To-Do_Variante_W</title><path class="cls-1" d="M25,5H22a2,2,0,0,0-2-2H19a2,2,0,0,0-2-2H15a2,2,0,0,0-1.41.59A2,2,0,0,0,13,3H12a2,2,0,0,0-2,2H7A2,2,0,0,0,5,7V28a2,2,0,0,0,2,2H25a2,2,0,0,0,2-2V7A2,2,0,0,0,25,5ZM23,15a1,1,0,0,1-1,1H19a1,1,0,0,1,0-2h3A1,1,0,0,1,23,15Zm-7.5-1.5-4,4a.7.7,0,0,1-1,0l-2-2a.71.71,0,0,1,1-1L11,16l3.5-3.5a.71.71,0,0,1,1,1Zm-7,8a.7.7,0,0,1,1,0L11,23l3.5-3.5a.71.71,0,0,1,1,1l-4,4a.7.7,0,0,1-1,0l-2-2a.7.7,0,0,1,0-1ZM12.18,5H14a1,1,0,0,0,1-1,1,1,0,0,1,2,0,1,1,0,0,0,1,1h1.82V7H12.18Z" transform="translate(-5 -1)"/><rect class="cls-1" x="13" y="20" width="5" height="2" rx="1" ry="1"/></svg>