<svg id="Ebene_4" data-name="Ebene 4" xmlns="http://www.w3.org/2000/svg" viewBox="0 0 26.41 30"><defs><style>.cls-1{fill:#fff;}</style></defs><title>Werkzeug_W</title><path class="cls-1" d="M16.16,22s0,0,0,.06a1.24,1.24,0,0,1-.95.44,1.28,1.28,0,0,1-.8-.29l-1.59,1.9a1.24,1.24,0,0,1,.16,1.75L9,30.55a1.24,1.24,0,0,1-1.75.16L3.45,27.53a1.22,1.22,0,0,1-.16-1.74l4-4.74A1.25,1.25,0,0,1,9,20.9L10.6,19a1.23,1.23,0,1,1,1.58-1.88l.77.64Z" transform="translate(-2.9 -1)"/><path class="cls-1" d="M29.17,2.86,28,5.72a.64.64,0,0,1-.54.39l-1.07.07a.63.63,0,0,1-.2,0l-6.69,8-1.68-1.84,6.46-7.71a.72.72,0,0,1-.07-.2l-.1-1.07a.6.6,0,0,1,.28-.6l2.63-1.6a.61.61,0,0,1,.72,0l1.21,1A.64.64,0,0,1,29.17,2.86Z" transform="translate(-2.9 -1)"/><path class="cls-1" d="M14,4a5.79,5.79,0,0,1,0,5.45L28.35,25.13a3.35,3.35,0,1,1-5.11,4.29l-13-17a.71.71,0,0,1-.2.06,5.74,5.74,0,0,1-5.47-1.69A5.56,5.56,0,0,1,3.22,5c.31-.76,1.31,1.15,1.31,1.15A3.63,3.63,0,0,0,8.69,8.06a3.51,3.51,0,0,0,2.12-5S9.72,1,10.52,1.18A5.37,5.37,0,0,1,14,4Z" transform="translate(-2.9 -1)"/></svg>