<svg id="Ebene_3" data-name="Ebene 3" xmlns="http://www.w3.org/2000/svg" viewBox="0 0 23.71 32"><defs><style>.cls-1{fill:none;}.cls-2{fill:#fff;}</style></defs><title>Vibration-Aus_W</title><line class="cls-1" x1="21.3" y1="17.71" x2="17.19" y2="21.81"/><line class="cls-1" x1="22.95" y1="12.05" x2="18.85" y2="16.15"/><path class="cls-2" d="M21.71,19.54l-2.83,2.82a1,1,0,0,1-1.42,0,.9.9,0,0,1-.27-.55l4.11-4.1.41.41A1,1,0,0,1,21.71,19.54Z" transform="translate(-4)"/><path class="cls-2" d="M22,13,20.3,14.71l-1.42,1.41-1,1-.42-.41a1,1,0,0,1,0-1.42l2.13-2.12L17.46,11a1,1,0,0,1,0-1.41,1,1,0,0,1,1.42,0l2.83,2.82A1,1,0,0,1,22,13Z" transform="translate(-4)"/><path class="cls-2" d="M25,10l-.41.42-1,1L23.12,11a1,1,0,0,1,0-1.41,1,1,0,0,1,1.42,0Z" transform="translate(-4)"/><path class="cls-2" d="M27.36,18.12a1,1,0,0,1,0,1.42l-2.82,2.82a1,1,0,0,1-1.42,0,1,1,0,0,1-.29-.7,1,1,0,0,1,.29-.71l2.12-2.12-2.12-2.12a.88.88,0,0,1-.27-.56L27,12l.41.41a1,1,0,0,1,0,1.42L25.24,16Z" transform="translate(-4)"/><path class="cls-2" d="M15,12V10a1,1,0,0,0-1-1V8a2,2,0,0,0-2-2H11V1.63A1.63,1.63,0,0,0,9.37,0H4V8h7a1,1,0,0,1,1,1V22a1,1,0,0,1-1,1H4v9H9.37A1.63,1.63,0,0,0,11,30.37V25h1a2,2,0,0,0,2-2V19a1,1,0,0,0,1-1V16a1,1,0,0,0-1-1V13A1,1,0,0,0,15,12Z" transform="translate(-4)"/><path class="cls-2" d="M27.55,10.46l0,.05-10,10a.78.78,0,0,1-.24.16.59.59,0,0,1-.25,0,.7.7,0,0,1-.5-.2.85.85,0,0,1-.17-.25.78.78,0,0,1,0-.21.61.61,0,0,1,0-.14.28.28,0,0,1,0-.15.14.14,0,0,1,0-.06.35.35,0,0,1,0-.08.42.42,0,0,1,.08-.12l10-10,.11-.09a.7.7,0,0,1,.88.09l0,0A.7.7,0,0,1,27.55,10.46Z" transform="translate(-4)"/><path d="M20.31,19.91a.61.61,0,0,0,0,.14s0,0,0,0A.29.29,0,0,1,20.31,19.91Z" transform="translate(-4)"/><path d="M27.5,10.51l-10,10a.64.64,0,0,1-.25.15.78.78,0,0,0,.24-.16Z" transform="translate(-4)"/></svg>