<svg xmlns="http://www.w3.org/2000/svg" viewBox="0 0 23.66 32"><defs><style>.cls-1{fill:#fff;}</style></defs><title>Vibration-An_W</title><g id="Ebene_3" data-name="Ebene 3"><path class="cls-1" d="M22.71,19.54l-2.83,2.83a1,1,0,0,1-1.41,0h0a1,1,0,0,1,0-1.41l2.12-2.12-2.12-2.12a1,1,0,0,1,0-1.41l2.12-2.12-2.12-2.12a1,1,0,0,1,0-1.41h0a1,1,0,0,1,1.41,0l2.83,2.83a1,1,0,0,1,0,1.41L20.59,16l2.12,2.12A1,1,0,0,1,22.71,19.54Z" transform="translate(-5)"/><path class="cls-1" d="M28.36,19.54l-2.83,2.83a1,1,0,0,1-1.41,0h0a1,1,0,0,1,0-1.41l2.12-2.12-2.12-2.12a1,1,0,0,1,0-1.41l2.12-2.12-2.12-2.12a1,1,0,0,1,0-1.41h0a1,1,0,0,1,1.41,0l2.83,2.83a1,1,0,0,1,0,1.41L26.24,16l2.12,2.12A1,1,0,0,1,28.36,19.54Z" transform="translate(-5)"/><path class="cls-1" d="M16,12V10a1,1,0,0,0-1-1V8a2,2,0,0,0-2-2H12V1.63A1.63,1.63,0,0,0,10.37,0H5V8h7a1,1,0,0,1,1,1V22a1,1,0,0,1-1,1H5v9h5.37A1.63,1.63,0,0,0,12,30.37V25h1a2,2,0,0,0,2-2V19a1,1,0,0,0,1-1V16a1,1,0,0,0-1-1V13A1,1,0,0,0,16,12Z" transform="translate(-5)"/></g></svg>