<svg id="Ebene_3" data-name="Ebene 3" xmlns="http://www.w3.org/2000/svg" viewBox="0 0 22 31"><defs><style>.cls-1{fill:#fff;}</style></defs><title>Sprachnotiz_W</title><path class="cls-1" d="M27,16v5.25a6,6,0,0,1-6,6H17V29h4v2H11V29h4V27.25H11a6,6,0,0,1-6-6V16H7v5a4,4,0,0,0,4,4H21a4,4,0,0,0,4-4V16Z" transform="translate(-5)"/><path class="cls-1" d="M20,0H12A3,3,0,0,0,9,3V20a3,3,0,0,0,3,3h8a3,3,0,0,0,3-3V3A3,3,0,0,0,20,0Zm1,20a1,1,0,0,1-1,1H12a1,1,0,0,1-1-1V3a1,1,0,0,1,1-1h8a1,1,0,0,1,1,1Z" transform="translate(-5)"/></svg>