<svg id="Ebene_3" data-name="Ebene 3" xmlns="http://www.w3.org/2000/svg" viewBox="0 0 32 20.25"><defs><style>.cls-1{fill:#fff;}</style></defs><title>WiFi-aus_W</title><path class="cls-1" d="M17.54,18.54l-1-1a3.55,3.55,0,0,0-.46,0,8.7,8.7,0,0,0-5.68,2.1,1.36,1.36,0,0,0-.08,2l1.11,1.18a1.33,1.33,0,0,0,1.81.16,4.41,4.41,0,0,1,2.46-1,2.69,2.69,0,0,1,0-.4,2.78,2.78,0,0,1,.83-2Zm0,0-1-1a3.55,3.55,0,0,0-.46,0,8.7,8.7,0,0,0-5.68,2.1,1.36,1.36,0,0,0-.08,2l1.11,1.18a1.33,1.33,0,0,0,1.81.16,4.41,4.41,0,0,1,2.46-1,2.69,2.69,0,0,1,0-.4,2.78,2.78,0,0,1,.83-2Zm0,0-1-1a3.55,3.55,0,0,0-.46,0,8.7,8.7,0,0,0-5.68,2.1,1.36,1.36,0,0,0-.08,2l1.11,1.18a1.33,1.33,0,0,0,1.81.16,4.41,4.41,0,0,1,2.46-1,2.69,2.69,0,0,1,0-.4,2.78,2.78,0,0,1,.83-2Zm-1.42-8.26A15.93,15.93,0,0,0,5.46,14.35a1.38,1.38,0,0,0-.09,2l1.11,1.19a1.36,1.36,0,0,0,1.9.09,11.6,11.6,0,0,1,7.47-3,2.83,2.83,0,0,1,4.69-1.1l1,1,1-1a2.81,2.81,0,0,1,2.07-.83A16,16,0,0,0,16.12,10.28ZM31.56,8.84A23.31,23.31,0,0,0,.42,9.09,1.35,1.35,0,0,0,.38,11L1.5,12.2a1.33,1.33,0,0,0,1.88.1,18.91,18.91,0,0,1,25.21-.23A1.36,1.36,0,0,0,30.43,12l1.16-1.17A1.36,1.36,0,0,0,31.56,8.84Zm-14,9.7-1-1a3.55,3.55,0,0,0-.46,0,8.7,8.7,0,0,0-5.68,2.1,1.36,1.36,0,0,0-.08,2l1.11,1.18a1.33,1.33,0,0,0,1.81.16,4.41,4.41,0,0,1,2.46-1,2.69,2.69,0,0,1,0-.4,2.78,2.78,0,0,1,.83-2Zm-1.42-8.26A15.93,15.93,0,0,0,5.46,14.35a1.38,1.38,0,0,0-.09,2l1.11,1.19a1.36,1.36,0,0,0,1.9.09,11.6,11.6,0,0,1,7.47-3,2.83,2.83,0,0,1,4.69-1.1l1,1,1-1a2.81,2.81,0,0,1,2.07-.83A16,16,0,0,0,16.12,10.28Zm1.42,8.26-1-1a3.55,3.55,0,0,0-.46,0,8.7,8.7,0,0,0-5.68,2.1,1.36,1.36,0,0,0-.08,2l1.11,1.18a1.33,1.33,0,0,0,1.81.16,4.41,4.41,0,0,1,2.46-1,2.69,2.69,0,0,1,0-.4,2.78,2.78,0,0,1,.83-2Zm-1.42-8.26A15.93,15.93,0,0,0,5.46,14.35a1.38,1.38,0,0,0-.09,2l1.11,1.19a1.36,1.36,0,0,0,1.9.09,11.6,11.6,0,0,1,7.47-3,2.83,2.83,0,0,1,4.69-1.1l1,1,1-1a2.81,2.81,0,0,1,2.07-.83A16,16,0,0,0,16.12,10.28Zm1.42,8.26-1-1a3.55,3.55,0,0,0-.46,0,8.7,8.7,0,0,0-5.68,2.1,1.36,1.36,0,0,0-.08,2l1.11,1.18a1.33,1.33,0,0,0,1.81.16,4.41,4.41,0,0,1,2.46-1,2.69,2.69,0,0,1,0-.4,2.78,2.78,0,0,1,.83-2Zm0,0-1-1a3.55,3.55,0,0,0-.46,0,8.7,8.7,0,0,0-5.68,2.1,1.36,1.36,0,0,0-.08,2l1.11,1.18a1.33,1.33,0,0,0,1.81.16,4.41,4.41,0,0,1,2.46-1,2.69,2.69,0,0,1,0-.4,2.78,2.78,0,0,1,.83-2Z" transform="translate(0 -3)"/><path class="cls-1" d="M25.54,20.54a1.42,1.42,0,0,1,0,2,1.42,1.42,0,0,1-2,0l-2-2,0,0-2,2a1.24,1.24,0,0,1-.22.18h0a1.41,1.41,0,0,1-1.77-.18,1.63,1.63,0,0,1-.32-.47h0a1.34,1.34,0,0,1-.1-.52,1.41,1.41,0,0,1,.42-1l2-2-.46-.46-1.54-1.54a1.39,1.39,0,0,1-.14-1.83,1.15,1.15,0,0,1,.14-.17,1.4,1.4,0,0,1,2,0l1,1,1,1,.36-.36,1.64-1.64a1.4,1.4,0,0,1,2,0,1.42,1.42,0,0,1,0,2l-2,2Z" transform="translate(0 -3)"/></svg>