<svg id="Ebene_3" data-name="Ebene 3" xmlns="http://www.w3.org/2000/svg" viewBox="0 0 32 20.25"><defs><style>.cls-1{fill:none;}.cls-2{fill:#fff;}</style></defs><title>WiFi_W</title><line class="cls-1" x1="7.79" y1="11.88" x2="4.92" y2="8.83"/><line class="cls-1" x1="12.62" y1="17" x2="9.72" y2="13.92"/><line class="cls-1" x1="3.01" y1="6.79" x2="0.14" y2="3.74"/><line class="cls-1" x1="27.32" y1="1.68" x2="25.19" y2="3.81"/><line class="cls-1" x1="23.78" y1="5.22" x2="21.66" y2="7.34"/><path class="cls-2" d="M16.12,17.56a8.68,8.68,0,0,0-5.68,2.1,1.37,1.37,0,0,0-.08,2l1.11,1.18a1.33,1.33,0,0,0,1.81.16,4.36,4.36,0,0,1,5-.44A1.41,1.41,0,0,0,20,22.36l1.18-1.18a1.36,1.36,0,0,0-.14-2.06A8.66,8.66,0,0,0,16.12,17.56Zm0,0a8.68,8.68,0,0,0-5.68,2.1,1.37,1.37,0,0,0-.08,2l1.11,1.18a1.33,1.33,0,0,0,1.81.16,4.36,4.36,0,0,1,5-.44A1.41,1.41,0,0,0,20,22.36l1.18-1.18a1.36,1.36,0,0,0-.14-2.06A8.66,8.66,0,0,0,16.12,17.56Zm0-7.28A15.94,15.94,0,0,0,5.46,14.35a1.38,1.38,0,0,0-.09,2l1.12,1.19a1.36,1.36,0,0,0,1.89.08,11.64,11.64,0,0,1,15.09-.34,1.35,1.35,0,0,0,1.8-.11L26.42,16a1.38,1.38,0,0,0-.11-2A16,16,0,0,0,16.12,10.28Zm0,7.28a8.68,8.68,0,0,0-5.68,2.1,1.37,1.37,0,0,0-.08,2l1.11,1.18a1.33,1.33,0,0,0,1.81.16,4.36,4.36,0,0,1,5-.44A1.41,1.41,0,0,0,20,22.36l1.18-1.18a1.36,1.36,0,0,0-.14-2.06A8.66,8.66,0,0,0,16.12,17.56Zm0-7.28A15.94,15.94,0,0,0,5.46,14.35a1.38,1.38,0,0,0-.09,2l1.12,1.19a1.36,1.36,0,0,0,1.89.08,11.64,11.64,0,0,1,15.09-.34,1.35,1.35,0,0,0,1.8-.11L26.42,16a1.38,1.38,0,0,0-.11-2A16,16,0,0,0,16.12,10.28Zm0,7.28a8.68,8.68,0,0,0-5.68,2.1,1.37,1.37,0,0,0-.08,2l1.11,1.18a1.33,1.33,0,0,0,1.81.16,4.36,4.36,0,0,1,5-.44A1.41,1.41,0,0,0,20,22.36l1.18-1.18a1.36,1.36,0,0,0-.14-2.06A8.66,8.66,0,0,0,16.12,17.56ZM16.12,3A23.18,23.18,0,0,0,.42,9.09,1.36,1.36,0,0,0,.38,11L1.5,12.2a1.35,1.35,0,0,0,1.89.1,18.9,18.9,0,0,1,25.2-.24A1.35,1.35,0,0,0,30.43,12l1.17-1.17a1.36,1.36,0,0,0,0-2A23.25,23.25,0,0,0,16.12,3Zm0,7.28A15.94,15.94,0,0,0,5.46,14.35a1.38,1.38,0,0,0-.09,2l1.12,1.19a1.36,1.36,0,0,0,1.89.08,11.64,11.64,0,0,1,15.09-.34,1.35,1.35,0,0,0,1.8-.11L26.42,16a1.38,1.38,0,0,0-.11-2A16,16,0,0,0,16.12,10.28Zm0,7.28a8.68,8.68,0,0,0-5.68,2.1,1.37,1.37,0,0,0-.08,2l1.11,1.18a1.33,1.33,0,0,0,1.81.16,4.36,4.36,0,0,1,5-.44A1.41,1.41,0,0,0,20,22.36l1.18-1.18a1.36,1.36,0,0,0-.14-2.06A8.66,8.66,0,0,0,16.12,17.56Zm0,0a8.68,8.68,0,0,0-5.68,2.1,1.37,1.37,0,0,0-.08,2l1.11,1.18a1.33,1.33,0,0,0,1.81.16,4.36,4.36,0,0,1,5-.44A1.41,1.41,0,0,0,20,22.36l1.18-1.18a1.36,1.36,0,0,0-.14-2.06A8.66,8.66,0,0,0,16.12,17.56Zm0,0a8.68,8.68,0,0,0-5.68,2.1,1.37,1.37,0,0,0-.08,2l1.11,1.18a1.33,1.33,0,0,0,1.81.16,4.36,4.36,0,0,1,5-.44A1.41,1.41,0,0,0,20,22.36l1.18-1.18a1.36,1.36,0,0,0-.14-2.06A8.66,8.66,0,0,0,16.12,17.56Z" transform="translate(0 -3)"/></svg>