<svg id="Kreis" xmlns="http://www.w3.org/2000/svg" viewBox="0 0 30 32"><defs><style>.cls-1{fill:#fff;}</style></defs><title>Workflow_Variante_W</title><path class="cls-1" d="M20,13v6a1,1,0,0,1-1,1H13a1,1,0,0,1-1-1V17H3V27H6V25.5a.25.25,0,0,1,.4-.2l3.33,2.5a.24.24,0,0,1,0,.4L6.4,30.7a.25.25,0,0,1-.4-.2V29H2a1,1,0,0,1-1-1V16a1,1,0,0,1,1-1H12V13a1,1,0,0,1,1-1h6A1,1,0,0,1,20,13Z" transform="translate(-1)"/><path class="cls-1" d="M31,4V16a1,1,0,0,1-1,1H26v1.5a.25.25,0,0,1-.4.2l-3.33-2.5a.24.24,0,0,1,0-.4l3.33-2.5a.25.25,0,0,1,.4.2V15h3V5H20V7a1,1,0,0,1-1,1H13a1,1,0,0,1-1-1V1a1,1,0,0,1,1-1h6a1,1,0,0,1,1,1V3H30A1,1,0,0,1,31,4Z" transform="translate(-1)"/><rect class="cls-1" x="11" y="24" width="8" height="8" rx="1" ry="1"/></svg>