<svg id="Kreis" xmlns="http://www.w3.org/2000/svg" viewBox="0 0 30 32">
  <defs>
    <style>.cls-1{fill:#fff;}</style>
  </defs>
  <title>Workflow_W</title>
  <path class="cls-1" d="M20,3V1a1,1,0,0,0-1-1H13a1,1,0,0,0-1,1V7a1,1,0,0,0,1,1h6a1,1,0,0,0,1-1V5h9V15H26V13.5a.25.25,0,0,0-.4-.2l-3.33,2.5a.24.24,0,0,0,0,.4l3.33,2.5a.25.25,0,0,0,.4-.2V17h4a1,1,0,0,0,1-1V4a1,1,0,0,0-1-1ZM18,6H14V2h4Z" transform="translate(-1)"/>
  <path class="cls-1" d="M19,12H13a1,1,0,0,0-1,1v2H2a1,1,0,0,0-1,1V28a1,1,0,0,0,1,1H6v1.5a.25.25,0,0,0,.4.2l3.33-2.5a.24.24,0,0,0,0-.4L6.4,25.3a.25.25,0,0,0-.4.2V27H3V17h9v2a1,1,0,0,0,1,1h6a1,1,0,0,0,1-1V13A1,1,0,0,0,19,12Zm-1,6H14V14h4Z" transform="translate(-1)"/>
  <path class="cls-1" d="M19,24H13a1,1,0,0,0-1,1v6a1,1,0,0,0,1,1h6a1,1,0,0,0,1-1V25A1,1,0,0,0,19,24Zm-1,6H14V26h4Z" transform="translate(-1)"/>
</svg>
